<svg height="511pt" viewBox="0 -30 511.99975 511" width="511pt" xmlns="http://www.w3.org/2000/svg"><path d="m460.644531 343.972656-25.855469-14.933594c-7.144531-4.128906-9.597656-13.257812-5.46875-20.402343 4.113282-7.175781 13.242188-9.582031 20.402344-5.46875l25.855469 14.933593c7.144531 4.125 9.597656 13.253907 5.46875 20.398438-4.136719 7.167969-13.292969 9.574219-20.402344 5.472656zm0 0" fill="#ff9f00"/><path d="m378.660156 415.019531-14.933594-25.855469c-4.128906-7.148437-1.675781-16.277343 5.46875-20.402343 7.117188-4.128907 16.257813-1.707031 20.402344 5.46875l14.933594 25.855469c4.125 7.144531 1.675781 16.273437-5.46875 20.402343-7.121094 4.113281-16.273438 1.683594-20.402344-5.46875zm0 0" fill="#ff9f00"/><path d="m161.449219 301.117188c-.300781 0-.589844.050781-.894531.050781h-28.683594c-2.625 0-5.191406.6875-7.46875 2l-25.855469 14.933593c-7.144531 4.125-9.597656 13.253907-5.46875 20.402344 4.136719 7.164063 13.292969 9.574219 20.402344 5.46875l22.382812-12.9375h24.691407c.300781 0 .589843-.050781.894531-.050781zm0 0" fill="#ffd400"/><path d="m175.066406 420.488281c-7.148437-4.128906-9.597656-13.257812-5.46875-20.402343l14.929688-25.855469c4.128906-7.175781 13.273437-9.597657 20.402344-5.46875 7.148437 4.125 9.597656 13.253906 5.46875 20.402343l-14.929688 25.855469c-4.140625 7.164063-13.296875 9.574219-20.402344 5.46875zm0 0" fill="#ffd400"/><path d="m302 405.800781v29.699219c0 8.402344-6.597656 15-15 15-8.101562 0-15-6.597656-15-15v-29.699219c0-8.402343 6.898438-15 15-15 8.402344 0 15 6.597657 15 15zm0 0" fill="#ffd400"/><path d="m302 405.800781v29.699219c0 8.402344-6.597656 15-15 15v-59.699219c8.402344 0 15 6.597657 15 15zm0 0" fill="#ff9f00"/><path d="m76.386719 118.417969c-3.890625-1.941407-57.820313-27.90625-54.675781-26.335938-4.644532-2.300781-10.195313-2.082031-14.59375.660157-4.421876 2.738281-7.117188 7.558593-7.117188 12.757812v120c0 5.199219 2.695312 10.019531 7.117188 12.757812 4.398437 2.726563 9.917968 2.945313 14.59375.660157 3.140624-1.570313 56.933593-27.460938 53.925781-25.957031.433593-.214844.914062-.058594 1.363281-.210938l30-46.46875-30-48.265625c-.199219.125-.417969.28125-.613281.402344zm0 0" fill="#ffd400"/><path d="m184.007812 77.109375-15-25.96875c-4.148437-7.179687-1.6875-16.351563 5.492188-20.496094 7.148438-4.171875 16.332031-1.699219 20.492188 5.496094l15 25.96875c4.148437 7.179687 1.6875 16.347656-5.492188 20.496094-7.152344 4.128906-16.34375 1.6875-20.492188-5.496094zm0 0" fill="#ffd400"/><path d="m302 15.5v30c0 8.402344-6.597656 15-15 15s-15-6.597656-15-15v-30c0-8.402344 6.597656-15 15-15s15 6.597656 15 15zm0 0" fill="#ffd400"/><path d="m287 60.5v-60c8.402344 0 15 6.597656 15 15v30c0 8.402344-6.597656 15-15 15zm0 0" fill="#ff9f00"/><path d="m376.644531 86.246094c-2.535156 0-5.101562-.644532-7.449219-2-7.148437-4.125-9.597656-13.253906-5.46875-20.402344l14.929688-25.855469c4.128906-7.160156 13.273438-9.625 20.402344-5.46875 7.148437 4.128907 9.597656 13.257813 5.46875 20.402344l-14.929688 25.855469c-2.773437 4.796875-7.789062 7.46875-12.953125 7.46875zm0 0" fill="#ff9f00"/><path d="m442.269531 151.839844c-5.160156 0-10.179687-2.671875-12.949219-7.46875-4.128906-7.144532-1.675781-16.273438 5.46875-20.402344l25.855469-14.933594c7.085938-4.109375 16.277344-1.675781 20.402344 5.472656 4.128906 7.144532 1.675781 16.273438-5.46875 20.398438l-25.855469 14.933594c-2.347656 1.359375-4.914062 2-7.453125 2zm0 0" fill="#ff9f00"/><path d="m486.566406 266.929688-30.867187-29.867188c-5.832031-5.832031-5.832031-15.28125 0-21.117188l30.867187-29.863281c5.832032-5.835937 15.226563-5.835937 21.058594 0 5.832031 5.832031 5.832031 15.28125 0 21.113281l-20.25 19.308594 20.25 19.308594c5.832031 5.832031 5.832031 15.285156 0 21.117188-5.832031 5.832031-15.222656 5.832031-21.058594 0zm0 0" fill="#ff9f00"/><path d="m481.097656 240.5c-.597656 10.199219-2.097656 20.398438-4.496094 30-20.402343 85.800781-97.5 150-189.601562 150-69 0-129.300781-36-164.097656-90-6-9.601562-11.402344-19.5-15.902344-30l52.800781-30c51.898438 0 89.398438 13.5 127.199219 3.898438 3.300781-.898438 6.597656-1.796876 9.902344-2.996094 41.996094-15.300782 85.496094-60.902344 147.296875-60.902344zm0 0" fill="#ede9e8"/><path d="m481.097656 240.5c-.597656 10.199219-2.097656 20.398438-4.496094 30-20.402343 85.800781-97.5 150-189.601562 150v-146.101562c3.300781-.898438 6.597656-1.796876 9.902344-2.996094 41.996094-15.300782 85.496094-60.902344 147.296875-60.902344zm0 0" fill="#d2c5c2"/><path d="m482 225.5c0 5.097656-.300781 9.902344-.902344 15h-36.898437c-61.800781 0-105.300781 15.601562-147.296875 30.902344-3.300782 1.199218-6.601563 2.398437-9.902344 3.597656-37.800781 13.5-75.300781 25.5-127.199219 25.5h-52.800781c-9.601562-23.101562-15-48.300781-15-75 0-3.898438-1.5-7.800781-4.5-10.5-2.699219-3-6.898438-3.597656-10.5-2.097656v-94.800782c48.898438-30.601562 112.5-87.601562 210-87.601562 107.402344 0 195 87.597656 195 195zm0 0" fill="#ffe470"/><path d="m482 225.5c0 5.097656-.300781 9.902344-.902344 15h-36.898437c-61.800781 0-105.300781 15.601562-147.296875 30.902344-3.300782 1.199218-6.601563 2.398437-9.902344 3.597656v-244.5c107.402344 0 195 87.597656 195 195zm0 0" fill="#fdbf00"/><path d="m376.660156 211.570312c-24.703125 0-44.796875-20.09375-44.796875-44.796874 0-24.707032 20.09375-44.800782 44.796875-44.800782s44.800782 20.09375 44.800782 44.800782c0 24.703124-20.097657 44.796874-44.800782 44.796874zm0 0" fill="#ede9e8"/><path d="m376.660156 181.570312c-8.160156 0-14.796875-6.636718-14.796875-14.796874 0-8.160157 6.636719-14.800782 14.796875-14.800782s14.800782 6.640625 14.800782 14.800782c0 8.160156-6.640626 14.796874-14.800782 14.796874zm0 0" fill="#68544f"/><g fill="#ffd400"><path d="m182 240.5c0 8.285156-6.714844 15-15 15s-15-6.714844-15-15 6.714844-15 15-15 15 6.714844 15 15zm0 0"/><path d="m302 165.5c0 8.402344-6.597656 15-15 15s-15-6.597656-15-15 6.597656-15 15-15 15 6.597656 15 15zm0 0"/><path d="m152 165.5c0 8.285156-6.714844 15-15 15s-15-6.714844-15-15 6.714844-15 15-15 15 6.714844 15 15zm0 0"/><path d="m227 180.5c0 8.285156-6.714844 15-15 15s-15-6.714844-15-15 6.714844-15 15-15 15 6.714844 15 15zm0 0"/><path d="m302 105.5c0 8.402344-6.597656 15-15 15s-15-6.597656-15-15 6.597656-15 15-15 15 6.597656 15 15zm0 0"/><path d="m212 105.5c0 8.285156-6.714844 15-15 15s-15-6.714844-15-15 6.714844-15 15-15 15 6.714844 15 15zm0 0"/></g><path d="m287 180.5v-30c8.402344 0 15 6.597656 15 15s-6.597656 15-15 15zm0 0" fill="#ff9f00"/><path d="m287 120.5v-30c8.402344 0 15 6.597656 15 15s-6.597656 15-15 15zm0 0" fill="#ff9f00"/><path d="m360.5 263.601562c-1.5-3-3.300781-6.300781-8.101562-7.199218-27.597657-13.800782-49.199219-23.703125-65.398438-30.601563-17.699219-7.800781-29.699219-11.699219-38.101562-13.5 0 0 0-.300781-.300782 0-13.796875-3-17.097656.300781-19.199218 4.796875-24.597657 27.601563-23.699219 83.101563 2.101562 108.902344 4.5 4.5 11.398438 5.699219 17.097656 3 4.5-2.402344 20.402344-9 38.402344-16.800781 29.398438-12.601563 64.796875-27.300781 66.597656-28.199219 7.5-3.898438 10.503906-12.898438 6.902344-20.398438zm0 0" fill="#ffd400"/><path d="m353.597656 284c-1.796875.898438-37.199218 15.597656-66.597656 28.199219v-86.398438c16.199219 6.898438 37.800781 16.800781 65.398438 30.601563 4.800781.898437 6.601562 4.199218 8.101562 7.199218 3.601562 7.5.597656 16.5-6.902344 20.398438zm0 0" fill="#ff9f00"/></svg>